<svg width="203" height="68" viewBox="0 0 203 68" fill="none" xmlns="http://www.w3.org/2000/svg">
<g filter="url(#filter0_d)">
<rect x="4" width="195" height="60" rx="10" fill="#FA9F5D"/>
<rect x="4.5" y="0.5" width="194" height="59" rx="9.5" stroke="black"/>
</g>
<path d="M32.3432 33.59H25.6552L24.4232 37H22.3112L27.8552 21.754H30.1652L35.6872 37H33.5752L32.3432 33.59ZM31.7712 31.962L28.9992 24.218L26.2272 31.962H31.7712ZM46.1774 37L42.5254 30.73H40.1054V37H38.1034V21.666H43.0534C44.212 21.666 45.1874 21.864 45.9794 22.26C46.786 22.656 47.3874 23.1913 47.7834 23.866C48.1794 24.5407 48.3774 25.3107 48.3774 26.176C48.3774 27.232 48.0694 28.1633 47.4534 28.97C46.852 29.7767 45.9427 30.312 44.7254 30.576L48.5754 37H46.1774ZM40.1054 29.124H43.0534C44.1387 29.124 44.9527 28.86 45.4954 28.332C46.038 27.7893 46.3094 27.0707 46.3094 26.176C46.3094 25.2667 46.038 24.5627 45.4954 24.064C44.9674 23.5653 44.1534 23.316 43.0534 23.316H40.1054V29.124Z" fill="black"/>
<path d="M35.9639 33.59H29.2759L28.0439 37H25.9319L31.4759 21.754H33.7859L39.3079 37H37.1959L35.9639 33.59ZM35.3919 31.962L32.6199 24.218L29.8479 31.962H35.3919ZM49.7981 37L46.1461 30.73H43.7261V37H41.7241V21.666H46.6741C47.8328 21.666 48.8081 21.864 49.6001 22.26C50.4068 22.656 51.0081 23.1913 51.4041 23.866C51.8001 24.5407 51.9981 25.3107 51.9981 26.176C51.9981 27.232 51.6901 28.1633 51.0741 28.97C50.4728 29.7767 49.5634 30.312 48.3461 30.576L52.1961 37H49.7981ZM43.7261 29.124H46.6741C47.7594 29.124 48.5734 28.86 49.1161 28.332C49.6588 27.7893 49.9301 27.0707 49.9301 26.176C49.9301 25.2667 49.6588 24.5627 49.1161 24.064C48.5881 23.5653 47.7741 23.316 46.6741 23.316H43.7261V29.124Z" fill="black"/>
<path d="M86.0745 23.16V37H84.2545V26.68L79.6545 37H78.3745L73.7545 26.66V37H71.9345V23.16H73.8945L79.0145 34.6L84.1345 23.16H86.0745ZM98.6011 26.04L92.0011 42.16H90.1211L92.2811 36.88L87.8611 26.04H89.8811L93.3211 34.92L96.7211 26.04H98.6011ZM120.363 26.04L116.943 37H115.063L112.423 28.3L109.783 37H107.903L104.463 26.04H106.323L108.843 35.24L111.563 26.04H113.423L116.083 35.26L118.563 26.04H120.363ZM132.169 31.1C132.169 31.4467 132.149 31.8133 132.109 32.2H123.349C123.416 33.28 123.782 34.1267 124.449 34.74C125.129 35.34 125.949 35.64 126.909 35.64C127.696 35.64 128.349 35.46 128.869 35.1C129.402 34.7267 129.776 34.2333 129.989 33.62H131.949C131.656 34.6733 131.069 35.5333 130.189 36.2C129.309 36.8533 128.216 37.18 126.909 37.18C125.869 37.18 124.936 36.9467 124.109 36.48C123.296 36.0133 122.656 35.3533 122.189 34.5C121.722 33.6333 121.489 32.6333 121.489 31.5C121.489 30.3667 121.716 29.3733 122.169 28.52C122.622 27.6667 123.256 27.0133 124.069 26.56C124.896 26.0933 125.842 25.86 126.909 25.86C127.949 25.86 128.869 26.0867 129.669 26.54C130.469 26.9933 131.082 27.62 131.509 28.42C131.949 29.2067 132.169 30.1 132.169 31.1ZM130.289 30.72C130.289 30.0267 130.136 29.4333 129.829 28.94C129.522 28.4333 129.102 28.0533 128.569 27.8C128.049 27.5333 127.469 27.4 126.829 27.4C125.909 27.4 125.122 27.6933 124.469 28.28C123.829 28.8667 123.462 29.68 123.369 30.72H130.289ZM136.391 28.08C136.765 27.4267 137.311 26.8933 138.031 26.48C138.751 26.0667 139.571 25.86 140.491 25.86C141.478 25.86 142.365 26.0933 143.151 26.56C143.938 27.0267 144.558 27.6867 145.011 28.54C145.465 29.38 145.691 30.36 145.691 31.48C145.691 32.5867 145.465 33.5733 145.011 34.44C144.558 35.3067 143.931 35.98 143.131 36.46C142.345 36.94 141.465 37.18 140.491 37.18C139.545 37.18 138.711 36.9733 137.991 36.56C137.285 36.1467 136.751 35.62 136.391 34.98V37H134.571V22.2H136.391V28.08ZM143.831 31.48C143.831 30.6533 143.665 29.9333 143.331 29.32C142.998 28.7067 142.545 28.24 141.971 27.92C141.411 27.6 140.791 27.44 140.111 27.44C139.445 27.44 138.825 27.6067 138.251 27.94C137.691 28.26 137.238 28.7333 136.891 29.36C136.558 29.9733 136.391 30.6867 136.391 31.5C136.391 32.3267 136.558 33.0533 136.891 33.68C137.238 34.2933 137.691 34.7667 138.251 35.1C138.825 35.42 139.445 35.58 140.111 35.58C140.791 35.58 141.411 35.42 141.971 35.1C142.545 34.7667 142.998 34.2933 143.331 33.68C143.665 33.0533 143.831 32.32 143.831 31.48ZM151.967 37.18C151.127 37.18 150.374 37.04 149.707 36.76C149.04 36.4667 148.514 36.0667 148.127 35.56C147.74 35.04 147.527 34.4467 147.487 33.78H149.367C149.42 34.3267 149.674 34.7733 150.127 35.12C150.594 35.4667 151.2 35.64 151.947 35.64C152.64 35.64 153.187 35.4867 153.587 35.18C153.987 34.8733 154.187 34.4867 154.187 34.02C154.187 33.54 153.974 33.1867 153.547 32.96C153.12 32.72 152.46 32.4867 151.567 32.26C150.754 32.0467 150.087 31.8333 149.567 31.62C149.06 31.3933 148.62 31.0667 148.247 30.64C147.887 30.2 147.707 29.6267 147.707 28.92C147.707 28.36 147.874 27.8467 148.207 27.38C148.54 26.9133 149.014 26.5467 149.627 26.28C150.24 26 150.94 25.86 151.727 25.86C152.94 25.86 153.92 26.1667 154.667 26.78C155.414 27.3933 155.814 28.2333 155.867 29.3H154.047C154.007 28.7267 153.774 28.2667 153.347 27.92C152.934 27.5733 152.374 27.4 151.667 27.4C151.014 27.4 150.494 27.54 150.107 27.82C149.72 28.1 149.527 28.4667 149.527 28.92C149.527 29.28 149.64 29.58 149.867 29.82C150.107 30.0467 150.4 30.2333 150.747 30.38C151.107 30.5133 151.6 30.6667 152.227 30.84C153.014 31.0533 153.654 31.2667 154.147 31.48C154.64 31.68 155.06 31.9867 155.407 32.4C155.767 32.8133 155.954 33.3533 155.967 34.02C155.967 34.62 155.8 35.16 155.467 35.64C155.134 36.12 154.66 36.5 154.047 36.78C153.447 37.0467 152.754 37.18 151.967 37.18ZM159.476 24.26C159.129 24.26 158.836 24.14 158.596 23.9C158.356 23.66 158.236 23.3667 158.236 23.02C158.236 22.6733 158.356 22.38 158.596 22.14C158.836 21.9 159.129 21.78 159.476 21.78C159.809 21.78 160.089 21.9 160.316 22.14C160.556 22.38 160.676 22.6733 160.676 23.02C160.676 23.3667 160.556 23.66 160.316 23.9C160.089 24.14 159.809 24.26 159.476 24.26ZM160.356 26.04V37H158.536V26.04H160.356ZM165.678 27.54V34C165.678 34.5333 165.791 34.9133 166.018 35.14C166.245 35.3533 166.638 35.46 167.198 35.46H168.538V37H166.898C165.885 37 165.125 36.7667 164.618 36.3C164.111 35.8333 163.858 35.0667 163.858 34V27.54H162.438V26.04H163.858V23.28H165.678V26.04H168.538V27.54H165.678ZM180.743 31.1C180.743 31.4467 180.723 31.8133 180.683 32.2H171.923C171.99 33.28 172.356 34.1267 173.023 34.74C173.703 35.34 174.523 35.64 175.483 35.64C176.27 35.64 176.923 35.46 177.443 35.1C177.976 34.7267 178.35 34.2333 178.563 33.62H180.523C180.23 34.6733 179.643 35.5333 178.763 36.2C177.883 36.8533 176.79 37.18 175.483 37.18C174.443 37.18 173.51 36.9467 172.683 36.48C171.87 36.0133 171.23 35.3533 170.763 34.5C170.296 33.6333 170.063 32.6333 170.063 31.5C170.063 30.3667 170.29 29.3733 170.743 28.52C171.196 27.6667 171.83 27.0133 172.643 26.56C173.47 26.0933 174.416 25.86 175.483 25.86C176.523 25.86 177.443 26.0867 178.243 26.54C179.043 26.9933 179.656 27.62 180.083 28.42C180.523 29.2067 180.743 30.1 180.743 31.1ZM178.863 30.72C178.863 30.0267 178.71 29.4333 178.403 28.94C178.096 28.4333 177.676 28.0533 177.143 27.8C176.623 27.5333 176.043 27.4 175.403 27.4C174.483 27.4 173.696 27.6933 173.043 28.28C172.403 28.8667 172.036 29.68 171.943 30.72H178.863Z" fill="black"/>
<defs>
<filter id="filter0_d" x="0" y="0" width="203" height="68" filterUnits="userSpaceOnUse" color-interpolation-filters="sRGB">
<feFlood flood-opacity="0" result="BackgroundImageFix"/>
<feColorMatrix in="SourceAlpha" type="matrix" values="0 0 0 0 0 0 0 0 0 0 0 0 0 0 0 0 0 0 127 0" result="hardAlpha"/>
<feOffset dy="4"/>
<feGaussianBlur stdDeviation="2"/>
<feComposite in2="hardAlpha" operator="out"/>
<feColorMatrix type="matrix" values="0 0 0 0 0.459667 0 0 0 0 0.196875 0 0 0 0 0.583333 0 0 0 1 0"/>
<feBlend mode="normal" in2="BackgroundImageFix" result="effect1_dropShadow"/>
<feBlend mode="normal" in="SourceGraphic" in2="effect1_dropShadow" result="shape"/>
</filter>
</defs>
</svg>
